<?xml version="1.0" encoding="UTF-8" standalone="no"?>
<svg
   xmlns:dc="http://purl.org/dc/elements/1.1/"
   xmlns:cc="http://creativecommons.org/ns#"
   xmlns:rdf="http://www.w3.org/1999/02/22-rdf-syntax-ns#"
   xmlns:svg="http://www.w3.org/2000/svg"
   xmlns="http://www.w3.org/2000/svg"
   xmlns:sodipodi="http://sodipodi.sourceforge.net/DTD/sodipodi-0.dtd"
   xmlns:inkscape="http://www.inkscape.org/namespaces/inkscape"
   height="329pt"
   viewBox="0 0 329.26933 329"
   width="329pt"
   fill="rgb(183, 209, 83)"
   version="1.1"
   id="svg835"
   sodipodi:docname="close.svg"
   inkscape:version="1.0.2 (e86c8708, 2021-01-15)">
  <metadata
     id="metadata841">
    <rdf:RDF>
      <cc:Work
         rdf:about="">
        <dc:format>image/svg+xml</dc:format>
        <dc:type
           rdf:resource="http://purl.org/dc/dcmitype/StillImage" />
      </cc:Work>
    </rdf:RDF>
  </metadata>
  <defs
     id="defs839" />
  <sodipodi:namedview
     pagecolor="#ffffff"
     bordercolor="#666666"
     borderopacity="1"
     objecttolerance="10"
     gridtolerance="10"
     guidetolerance="10"
     inkscape:pageopacity="0"
     inkscape:pageshadow="2"
     inkscape:window-width="1920"
     inkscape:window-height="978"
     id="namedview837"
     showgrid="false"
     inkscape:zoom="1.5227964"
     inkscape:cx="218.67665"
     inkscape:cy="219.99002"
     inkscape:window-x="0"
     inkscape:window-y="25"
     inkscape:window-maximized="1"
     inkscape:current-layer="svg835"
     inkscape:document-rotation="0" />
  <path
     d="M 192.32291,164.77021 310.00246,48.237836 c 7.65839,-7.579947 7.65839,-19.835676 0,-27.415624 -7.6548,-7.579948 -20.03156,-7.579948 -27.68635,0 L 164.63297,137.3546 46.953426,20.822212 c -7.658386,-7.579948 -20.031554,-7.579948 -27.686354,0 -7.658385,7.579948 -7.658385,19.835677 0,27.415624 L 136.94662,164.77021 19.267072,281.30259 c -7.658385,7.57995 -7.658385,19.83568 0,27.41563 3.814851,3.78109 8.830807,5.68053 13.843177,5.68053 5.01237,0 10.02474,-1.89944 13.843177,-5.68053 L 164.63297,192.18584 282.31611,308.71822 c 3.81843,3.78109 8.8308,5.68053 13.84318,5.68053 5.01236,0 10.02473,-1.89944 13.84317,-5.68053 7.65839,-7.57995 7.65839,-19.83568 0,-27.41563 z m 0,0"
     id="path833"
     style="mix-blend-mode:hard-light;fill:#e3051a;fill-opacity:1;stroke:#e3051a;stroke-width:21.30542754;stroke-miterlimit:4;stroke-dasharray:none;stroke-opacity:1" />
</svg>
