<?xml version="1.0" encoding="UTF-8" standalone="no"?>
<svg
   xmlns:dc="http://purl.org/dc/elements/1.1/"
   xmlns:cc="http://creativecommons.org/ns#"
   xmlns:rdf="http://www.w3.org/1999/02/22-rdf-syntax-ns#"
   xmlns:svg="http://www.w3.org/2000/svg"
   xmlns="http://www.w3.org/2000/svg"
   xmlns:sodipodi="http://sodipodi.sourceforge.net/DTD/sodipodi-0.dtd"
   xmlns:inkscape="http://www.inkscape.org/namespaces/inkscape"
   width="41.223"
   height="53"
   viewBox="0 0 41.223 53"
   version="1.1"
   id="svg845"
   sodipodi:docname="dead.svg"
   inkscape:version="1.0.2 (e86c8708, 2021-01-15)">
  <metadata
     id="metadata849">
    <rdf:RDF>
      <cc:Work
         rdf:about="">
        <dc:format>image/svg+xml</dc:format>
        <dc:type
           rdf:resource="http://purl.org/dc/dcmitype/StillImage" />
        <dc:title></dc:title>
      </cc:Work>
    </rdf:RDF>
  </metadata>
  <sodipodi:namedview
     pagecolor="#ffffff"
     bordercolor="#666666"
     borderopacity="1"
     objecttolerance="10"
     gridtolerance="10"
     guidetolerance="10"
     inkscape:pageopacity="0"
     inkscape:pageshadow="2"
     inkscape:window-width="1920"
     inkscape:window-height="978"
     id="namedview847"
     showgrid="false"
     inkscape:zoom="7.9245283"
     inkscape:cx="4.6350175"
     inkscape:cy="29.456048"
     inkscape:window-x="0"
     inkscape:window-y="25"
     inkscape:window-maximized="1"
     inkscape:current-layer="svg845" />
  <defs
     id="defs835">
    <style
       id="style833">.a{fill:#fff;}</style>
  </defs>
  <g
     transform="translate(-1172.56 -4807)"
     id="g843"
     style="fill:#ffffff">
    <path
       class="a"
       d="M49.08,23.165a16.165,16.165,0,1,0-32.33,0V53.64a.509.509,0,0,0,.519.519H48.561a.509.509,0,0,0,.519-.519Zm-5.364,7.791a.986.986,0,0,1-.986.986H23.1a.986.986,0,0,1-.986-.986V21.14a.986.986,0,0,1,.986-.975H42.731a.986.986,0,0,1,.986.975Z"
       transform="translate(1160.251 4800)"
       id="path837"
       style="fill:#ffffff" />
    <rect
       class="a"
       width="17.67"
       height="7.855"
       transform="translate(1184.337 4822.126)"
       id="rect839"
       style="fill:#ffffff" />
    <rect
       class="a"
       width="41.223"
       height="3.922"
       rx="0.49"
       transform="translate(1172.56 4856.078)"
       id="rect841"
       style="fill:#ffffff" />
  </g>
</svg>
