<?xml version="1.0" encoding="UTF-8" standalone="no"?>
<svg
   xmlns:dc="http://purl.org/dc/elements/1.1/"
   xmlns:cc="http://creativecommons.org/ns#"
   xmlns:rdf="http://www.w3.org/1999/02/22-rdf-syntax-ns#"
   xmlns:svg="http://www.w3.org/2000/svg"
   xmlns="http://www.w3.org/2000/svg"
   xmlns:sodipodi="http://sodipodi.sourceforge.net/DTD/sodipodi-0.dtd"
   xmlns:inkscape="http://www.inkscape.org/namespaces/inkscape"
   width="40"
   height="95"
   viewBox="0 0 40 94.999998"
   version="1.1"
   id="svg841"
   sodipodi:docname="mild.svg"
   inkscape:version="1.0.2 (e86c8708, 2021-01-15)">
  <metadata
     id="metadata845">
    <rdf:RDF>
      <cc:Work
         rdf:about="">
        <dc:format>image/svg+xml</dc:format>
        <dc:type
           rdf:resource="http://purl.org/dc/dcmitype/StillImage" />
        <dc:title></dc:title>
      </cc:Work>
    </rdf:RDF>
  </metadata>
  <sodipodi:namedview
     pagecolor="#ffffff"
     bordercolor="#666666"
     borderopacity="1"
     objecttolerance="10"
     gridtolerance="10"
     guidetolerance="10"
     inkscape:pageopacity="0"
     inkscape:pageshadow="2"
     inkscape:window-width="1920"
     inkscape:window-height="978"
     id="namedview843"
     showgrid="false"
     inkscape:zoom="4.639228"
     inkscape:cx="32.3442"
     inkscape:cy="64.048647"
     inkscape:window-x="0"
     inkscape:window-y="25"
     inkscape:window-maximized="1"
     inkscape:current-layer="svg841"
     inkscape:document-rotation="0" />
  <defs
     id="defs835">
    <style
       id="style833">.a{fill:#fff;}</style>
    <style
       id="style833-3">.a,.b{fill:#fff;}.b{font-size:20px;font-family:Gotham-Bold, Gotham;font-weight:700;letter-spacing:-0.01em;}</style>
  </defs>
  <g
     id="g848"
     transform="matrix(0.97879527,0,0,0.97879527,5.0753297,0)"
     style="fill:#ffffff">
    <circle
       class="a"
       cx="7.2160001"
       cy="7.2160001"
       id="circle837"
       style="fill:#ffffff"
       transform="translate(8.024)"
       r="7.2160001" />
    <path
       class="a"
       d="m 48.388,23.03 c -7.957,0 -15.239,4.468 -15.239,12.67 l 0.006,17.853 a 3.221,3.221 0 0 0 3.211,3.284 3.084,3.084 0 0 0 3.034,-3.284 V 37.487 c 0,-0.6 1.051,-0.6 1.051,0 v 47.051 a 3.617,3.617 0 0 0 3.617,3.617 h 0.007 A 3.617,3.617 0 0 0 47.7,84.538 V 56.872 a 0.692,0.692 0 1 1 1.383,0 v 27.666 a 3.618,3.618 0 0 0 3.617,3.617 v 0 a 3.617,3.617 0 0 0 3.617,-3.617 V 37.487 c 0,-0.6 1.077,-0.6 1.077,0 v 16.066 a 3.11,3.11 0 0 0 3.07,3.284 3.177,3.177 0 0 0 3.156,-3.284 L 63.645,35.7 C 63.646,27.5 56.342,23.03 48.388,23.03 Z"
       id="path839"
       style="fill:#ffffff"
       transform="translate(-33.149,-6.715)" />
  </g>
  <g
     aria-label="MILD"
     id="text849"
     style="font-weight:700;font-size:13.33329999999999949px;font-family:Gotham-Bold, Gotham;letter-spacing:-0.01em;fill:#ffffff;stroke-width:0.153741"
     class="b">
    <path
       d="M 3.7516037,93.838341 H 5.764932 v -6.053318 l 2.5999934,3.946656 h 0.053333 l 2.6266604,-3.986656 v 6.093318 h 2.039994 v -9.33331 H 10.871586 L 8.4182586,88.451688 5.9649315,84.505031 H 3.7516037 Z"
       style="font-weight:700;font-size:13.33329999999999949px;font-family:Gotham-Bold, Gotham;letter-spacing:-0.01em;fill:#ffffff;stroke-width:0.153741"
       id="path850" />
    <path
       d="m 15.274074,93.838341 h 2.053328 v -9.33331 h -2.053328 z"
       style="font-weight:700;font-size:13.33329999999999949px;font-family:Gotham-Bold, Gotham;letter-spacing:-0.01em;fill:#ffffff;stroke-width:0.153741"
       id="path852" />
    <path
       d="m 19.526563,93.838341 h 6.70665 v -1.866662 h -4.653322 v -7.466648 h -2.053328 z"
       style="font-weight:700;font-size:13.33329999999999949px;font-family:Gotham-Bold, Gotham;letter-spacing:-0.01em;fill:#ffffff;stroke-width:0.153741"
       id="path854" />
    <path
       d="m 27.648418,93.838341 h 3.639991 c 2.933326,0 4.959987,-2.039995 4.959987,-4.666655 v -0.02667 c 0,-2.62666 -2.026661,-4.639988 -4.959987,-4.639988 h -3.639991 z m 2.053328,-1.853329 V 86.35836 h 1.586663 c 1.679996,0 2.813326,1.159997 2.813326,2.813326 v 0.02667 c 0,1.65333 -1.13333,2.78666 -2.813326,2.78666 z"
       style="font-weight:700;font-size:13.33329999999999949px;font-family:Gotham-Bold, Gotham;letter-spacing:-0.01em;fill:#ffffff;stroke-width:0.153741"
       id="path856" />
  </g>
</svg>
