<?xml version="1.0" encoding="UTF-8" standalone="no"?>
<svg
   xmlns:dc="http://purl.org/dc/elements/1.1/"
   xmlns:cc="http://creativecommons.org/ns#"
   xmlns:rdf="http://www.w3.org/1999/02/22-rdf-syntax-ns#"
   xmlns:svg="http://www.w3.org/2000/svg"
   xmlns="http://www.w3.org/2000/svg"
   xmlns:sodipodi="http://sodipodi.sourceforge.net/DTD/sodipodi-0.dtd"
   xmlns:inkscape="http://www.inkscape.org/namespaces/inkscape"
   width="80"
   height="95"
   viewBox="0 0 80 94.999998"
   version="1.1"
   id="svg841"
   sodipodi:docname="moderate.svg"
   inkscape:version="1.0.2 (e86c8708, 2021-01-15)">
  <metadata
     id="metadata845">
    <rdf:RDF>
      <cc:Work
         rdf:about="">
        <dc:format>image/svg+xml</dc:format>
        <dc:type
           rdf:resource="http://purl.org/dc/dcmitype/StillImage" />
        <dc:title></dc:title>
      </cc:Work>
    </rdf:RDF>
  </metadata>
  <sodipodi:namedview
     pagecolor="#ffffff"
     bordercolor="#666666"
     borderopacity="1"
     objecttolerance="10"
     gridtolerance="10"
     guidetolerance="10"
     inkscape:pageopacity="0"
     inkscape:pageshadow="2"
     inkscape:window-width="1920"
     inkscape:window-height="978"
     id="namedview843"
     showgrid="false"
     inkscape:zoom="4.735807"
     inkscape:cx="34.218196"
     inkscape:cy="65.167417"
     inkscape:window-x="0"
     inkscape:window-y="25"
     inkscape:window-maximized="1"
     inkscape:current-layer="svg841"
     inkscape:document-rotation="0" />
  <defs
     id="defs835">
    <style
       id="style833">.a{fill:#fff;}</style>
    <style
       id="style833-3">.a,.b{fill:#fff;}.b{font-size:20px;font-family:Gotham-Bold, Gotham;font-weight:700;letter-spacing:-0.01em;}</style>
    <style
       id="style2037">.a{fill:#fff;}</style>
  </defs>
  <text
     class="b"
     id="text849"
     x="0.87155837"
     y="93.838341"
     style="font-size:13.33329999999999949px;fill:#ffffff;stroke-width:0.153741;">MODERATE</text>
  <path
     class="a"
     d="m 33.693429,13.730354 a 8.3008473,8.3008473 0 1 1 6.307607,2.905297 8.2863209,8.2863209 0 0 1 -6.307607,-2.905297 z M 55.73841,44.910412 A 4.452367,4.452367 0 0 0 54.46838,44.06165 l -0.311282,-0.140077 -1.613477,0.988839 -3.372219,2.066911 a 3.9636546,3.9636546 0 0 1 -2.070024,0.587285 v 0 a 3.9429025,3.9429025 0 0 1 -3.386751,-1.894669 3.7716975,3.7716975 0 0 1 -0.345523,-0.759527 4.2541843,4.2541843 0 0 1 -0.157716,-0.560307 3.9356392,3.9356392 0 0 1 1.812698,-4.137973 l 0.32477,-0.19922 2.724759,-1.670546 v 0 l 1.235788,-0.757452 -1.776381,-8.827951 0.500126,-0.03009 0.500126,-0.03009 1.884293,9.371657 -0.447209,0.273927 v 0 l -3.520597,2.157183 -0.906872,0.556157 a 2.9364247,2.9364247 0 0 0 -1.314647,3.294399 3.2995868,3.2995868 0 0 0 0.207521,0.560307 2.4311107,2.4311107 0 0 0 0.119325,0.239687 2.972741,2.972741 0 0 0 4.092323,0.982613 l 1.998429,-1.2223 2.409321,-1.477551 2.245379,-1.376903 a 2.9841546,2.9841546 0 0 0 1.361339,-3.123194 L 56.543592,38.344443 54.5462,28.410404 52.874617,20.097105 v 0 A 6.8969665,6.8969665 0 0 0 47.396058,14.07899 h -0.0052 a 9.3924088,9.3924088 0 0 1 -14.777589,0 6.8824401,6.8824401 0 0 0 -5.477522,5.995287 l -1.703737,8.454413 -1.971451,9.809526 -0.119325,0.594548 a 2.9841546,2.9841546 0 0 0 1.361339,3.123194 l 2.245379,1.376903 2.409322,1.477551 1.993241,1.2223 a 2.9737786,2.9737786 0 0 0 4.093355,-0.982613 2.4311107,2.4311107 0 0 0 0.119325,-0.239687 3.2995868,3.2995868 0 0 0 0.207521,-0.560307 2.9343495,2.9343495 0 0 0 -1.311534,-3.291286 l -0.907905,-0.557195 -3.52786,-2.16237 -0.01971,-0.01245 -0.420231,-0.257326 1.840714,-9.153759 0.499088,0.03216 0.499089,0.03217 -1.725539,8.604866 1.212961,0.743964 0.01868,0.01141 2.728904,1.673659 0.324771,0.19922 a 3.933564,3.933564 0 0 1 1.812697,4.136935 4.2541843,4.2541843 0 0 1 -0.157716,0.560307 3.7716975,3.7716975 0 0 1 -0.345523,0.759527 3.9491281,3.9491281 0 0 1 -3.388821,1.896744 v 0 a 3.9501657,3.9501657 0 0 1 -2.07522,-0.587283 l -3.364956,-2.068986 -1.615553,-0.988839 -0.311281,0.140077 a 4.452367,4.452367 0 0 0 -1.27003,0.848762 h -7.570373 v 4.866372 h 2.161333 V 75.45753 h 3.651335 V 49.776784 h 0.613226 l 4.584143,22.477657 a 4.4617054,4.4617054 0 0 0 4.367284,3.572477 4.5146233,4.5146233 0 0 0 0.897529,-0.09131 4.4617054,4.4617054 0 0 0 3.482205,-5.265851 l -4.01761,-19.702061 2.23189,-0.990913 h 10.666589 l 2.232933,0.990913 -4.017615,19.702061 a 4.4617054,4.4617054 0 0 0 3.482211,5.265851 4.5146233,4.5146233 0 0 0 0.897529,0.09131 4.4617054,4.4617054 0 0 0 4.369358,-3.572477 l 4.583106,-22.477657 h 0.247988 V 75.45753 h 4.016572 V 49.776784 h 2.159258 v -4.866372 z"
     id="path2041"
     style="fill:#ffffff;stroke-width:1.03761" />
</svg>
