<?xml version="1.0" encoding="UTF-8" standalone="no"?>
<svg
   xmlns:dc="http://purl.org/dc/elements/1.1/"
   xmlns:cc="http://creativecommons.org/ns#"
   xmlns:rdf="http://www.w3.org/1999/02/22-rdf-syntax-ns#"
   xmlns:svg="http://www.w3.org/2000/svg"
   xmlns="http://www.w3.org/2000/svg"
   xmlns:sodipodi="http://sodipodi.sourceforge.net/DTD/sodipodi-0.dtd"
   xmlns:inkscape="http://www.inkscape.org/namespaces/inkscape"
   width="130"
   height="110"
   viewBox="0 0 130 110"
   version="1.1"
   id="svg853"
   sodipodi:docname="play.svg"
   inkscape:version="1.0.2 (e86c8708, 2021-01-15)">
  <metadata
     id="metadata857">
    <rdf:RDF>
      <cc:Work
         rdf:about="">
        <dc:format>image/svg+xml</dc:format>
        <dc:type
           rdf:resource="http://purl.org/dc/dcmitype/StillImage" />
        <dc:title />
      </cc:Work>
    </rdf:RDF>
  </metadata>
  <sodipodi:namedview
     pagecolor="#ffffff"
     bordercolor="#666666"
     borderopacity="1"
     objecttolerance="10"
     gridtolerance="10"
     guidetolerance="10"
     inkscape:pageopacity="0"
     inkscape:pageshadow="2"
     inkscape:window-width="1920"
     inkscape:window-height="978"
     id="namedview855"
     showgrid="false"
     inkscape:zoom="4.7894355"
     inkscape:cx="76.468519"
     inkscape:cy="52.370076"
     inkscape:window-x="0"
     inkscape:window-y="25"
     inkscape:window-maximized="1"
     inkscape:current-layer="g886"
     inkscape:document-rotation="0" />
  <defs
     id="defs835">
    <style
       id="style833">.a,.b{fill:#fff;}.b{font-size:20px;font-family:Gotham-Bold, Gotham;font-weight:700;letter-spacing:-0.01em;}</style>
  </defs>
  <g
     id="g886"
     transform="matrix(0.9424873,0,0,0.9424873,-78.729314,-33.530121)"
     style="fill:#ff2a2a">
    <g
       id="g944"
       transform="translate(0,-0.52492141)"
       style="fill:#ffffff">
      <g
         transform="matrix(0.9751181,0,0,0.9751181,112.93751,37.514)"
         id="g843"
         style="fill:#ffffff">
        <path
           class="a"
           d="m 790.689,346.063 a 40.572,40.572 0 1 0 40.573,40.571 40.615,40.615 0 0 0 -40.573,-40.571 z m 0,74.132 a 33.561,33.561 0 1 1 33.561,-33.561 33.6,33.6 0 0 1 -33.561,33.56 z"
           transform="translate(-750.118,-346.063)"
           id="path839"
           style="fill:#ffffff" />
        <path
           class="a"
           d="M 766.362,384.492 786.91,372.628 766.362,360.764 Z"
           transform="translate(-734.642,-332.057)"
           id="path841"
           style="fill:#ffffff" />
      </g>
      <g
         aria-label="PLAY VIDEO"
         id="text849"
         style="font-weight:700;font-size:20px;font-family:Gotham-Bold, Gotham;letter-spacing:-0.01em;fill:#ffffff;stroke-width:0.975118"
         class="b"
         transform="translate(-0.3132947,-15.59799)">
        <path
           d="m 98.156654,156.74478 q 0,0.97656 -0.341797,1.91406 -0.341796,0.92774 -0.976562,1.5625 -0.869141,0.85938 -1.943359,1.29883 -1.064454,0.43946 -2.65625,0.43946 h -2.333985 v 4.73632 h -3.75 v -14.54101 h 6.171875 q 1.386719,0 2.333985,0.24414 0.957031,0.23437 1.689453,0.71289 0.878906,0.57617 1.33789,1.47461 0.46875,0.89844 0.46875,2.1582 z m -3.876953,0.0879 q 0,-0.61523 -0.332031,-1.05469 -0.332031,-0.44921 -0.771484,-0.625 -0.585938,-0.23437 -1.142579,-0.2539 -0.55664,-0.0293 -1.484375,-0.0293 h -0.644531 v 4.35547 h 1.074219 q 0.957031,0 1.572266,-0.11719 0.625,-0.11718 1.044921,-0.46875 0.361329,-0.3125 0.517579,-0.74218 0.166015,-0.43946 0.166015,-1.06446 z"
           style="fill:#ffffff;stroke-width:0.975118"
           id="path910" />
        <path
           d="m 111.09142,166.69595 h -10.48828 v -14.54101 h 3.75 v 11.72851 h 6.73828 z"
           style="fill:#ffffff;stroke-width:0.975118"
           id="path912" />
        <path
           d="m 126.57501,166.69595 h -3.87695 l -1.00586,-2.93945 h -5.39062 l -1.00586,2.93945 h -3.7793 l 5.37109,-14.54101 h 4.31641 z m -5.79101,-5.60547 -1.78711,-5.21484 -1.78711,5.21484 z"
           style="fill:#ffffff;stroke-width:0.975118"
           id="path914" />
        <path
           d="m 141.27736,152.15494 -5.36133,8.91601 v 5.625 h -3.75 v -5.44922 l -5.44922,-9.09179 h 4.25781 l 3.14454,5.625 3.03711,-5.625 z"
           style="fill:#ffffff;stroke-width:0.975118"
           id="path916" />
        <path
           d="m 162.83048,152.15494 -5.30273,14.54101 h -4.19922 l -5.30274,-14.54101 h 3.93555 l 3.51563,10.21484 3.51562,-10.21484 z"
           style="fill:#ffffff;stroke-width:0.975118"
           id="path918" />
        <path
           d="m 172.58166,166.69595 h -8.51563 v -2.57812 h 2.38281 v -9.38477 h -2.38281 v -2.57812 h 8.51563 v 2.57812 h -2.38282 v 9.38477 h 2.38282 z"
           style="fill:#ffffff;stroke-width:0.975118"
           id="path920" />
        <path
           d="m 189.19806,159.44009 q 0,2.03125 -0.92774,3.64258 -0.92773,1.60156 -2.34375,2.46094 -1.06445,0.64453 -2.33398,0.89844 -1.26953,0.2539 -3.00781,0.2539 h -5.12696 v -14.54101 h 5.27344 q 1.77735,0 3.06641,0.30273 1.28906,0.29297 2.16797,0.83985 1.5039,0.91796 2.36328,2.48046 0.86914,1.55274 0.86914,3.66211 z m -3.87695,-0.0293 q 0,-1.43555 -0.52735,-2.45117 -0.51758,-1.0254 -1.65039,-1.60157 -0.57617,-0.2832 -1.18164,-0.38086 -0.5957,-0.10742 -1.80664,-0.10742 h -0.94727 v 9.10156 h 0.94727 q 1.33789,0 1.96289,-0.11718 0.625,-0.12696 1.2207,-0.44922 1.02539,-0.58594 1.50391,-1.5625 0.47852,-0.98633 0.47852,-2.43164 z"
           style="fill:#ffffff;stroke-width:0.975118"
           id="path922" />
        <path
           d="m 202.37697,166.69595 h -10.51758 v -14.54101 h 10.51758 v 2.8125 h -6.78711 v 2.50976 h 6.29883 v 2.8125 h -6.29883 v 3.59375 h 6.78711 z"
           style="fill:#ffffff;stroke-width:0.975118"
           id="path924" />
        <path
           d="m 219.47189,159.43033 q 0,3.47656 -1.99219,5.52734 -1.99219,2.04102 -5.50781,2.04102 -3.50586,0 -5.49805,-2.04102 -1.99219,-2.05078 -1.99219,-5.52734 0,-3.50586 1.99219,-5.53711 1.99219,-2.04102 5.49805,-2.04102 3.49609,0 5.49804,2.04102 2.00196,2.03125 2.00196,5.53711 z m -4.97071,3.68164 q 0.54688,-0.66406 0.81055,-1.5625 0.26367,-0.9082 0.26367,-2.12891 0,-1.30859 -0.30273,-2.22656 -0.30274,-0.91797 -0.79102,-1.48437 -0.49805,-0.58594 -1.15234,-0.84961 -0.64453,-0.26368 -1.34766,-0.26368 -0.71289,0 -1.34765,0.25391 -0.625,0.25391 -1.15235,0.83984 -0.48828,0.54688 -0.80078,1.51368 -0.30273,0.95703 -0.30273,2.22656 0,1.29883 0.29296,2.2168 0.30274,0.9082 0.79102,1.48437 0.48828,0.57617 1.14258,0.84961 0.6543,0.27344 1.37695,0.27344 0.72266,0 1.37695,-0.27344 0.6543,-0.2832 1.14258,-0.86914 z"
           style="fill:#ffffff;stroke-width:0.975118"
           id="path926" />
      </g>
      <text
         class="b"
         id="text861"
         x="145.23311"
         y="174.50444"
         style="fill:#ffffff;stroke-width:0.975118"><tspan
           x="145.23311"
           y="174.50444"
           id="tspan859"
           style="fill:#ffffff;stroke-width:0.975118" /></text>
    </g>
  </g>
</svg>
