<?xml version="1.0" encoding="UTF-8" standalone="no"?>
<svg
   xmlns:dc="http://purl.org/dc/elements/1.1/"
   xmlns:cc="http://creativecommons.org/ns#"
   xmlns:rdf="http://www.w3.org/1999/02/22-rdf-syntax-ns#"
   xmlns:svg="http://www.w3.org/2000/svg"
   xmlns="http://www.w3.org/2000/svg"
   xmlns:sodipodi="http://sodipodi.sourceforge.net/DTD/sodipodi-0.dtd"
   xmlns:inkscape="http://www.inkscape.org/namespaces/inkscape"
   width="55"
   height="95"
   viewBox="0 0 55 94.999998"
   version="1.1"
   id="svg841"
   sodipodi:docname="severe.svg"
   inkscape:version="1.0.2 (e86c8708, 2021-01-15)">
  <metadata
     id="metadata845">
    <rdf:RDF>
      <cc:Work
         rdf:about="">
        <dc:format>image/svg+xml</dc:format>
        <dc:type
           rdf:resource="http://purl.org/dc/dcmitype/StillImage" />
        <dc:title></dc:title>
      </cc:Work>
    </rdf:RDF>
  </metadata>
  <sodipodi:namedview
     pagecolor="#ffffff"
     bordercolor="#666666"
     borderopacity="1"
     objecttolerance="10"
     gridtolerance="10"
     guidetolerance="10"
     inkscape:pageopacity="0"
     inkscape:pageshadow="2"
     inkscape:window-width="1920"
     inkscape:window-height="978"
     id="namedview843"
     showgrid="false"
     inkscape:zoom="4.639228"
     inkscape:cx="26.524266"
     inkscape:cy="61.677563"
     inkscape:window-x="0"
     inkscape:window-y="25"
     inkscape:window-maximized="1"
     inkscape:current-layer="text849-8"
     inkscape:document-rotation="0" />
  <defs
     id="defs835">
    <style
       id="style833">.a{fill:#fff;}</style>
    <style
       id="style833-3">.a,.b{fill:#fff;}.b{font-size:20px;font-family:Gotham-Bold, Gotham;font-weight:700;letter-spacing:-0.01em;}</style>
    <style
       id="style1448">.a{fill:#fff;}</style>
    <style
       id="style833-7">.a{fill:#fff;}</style>
    <style
       id="style833-3-8">.a,.b{fill:#fff;}.b{font-size:20px;font-family:Gotham-Bold, Gotham;font-weight:700;letter-spacing:-0.01em;}</style>
  </defs>
  <g
     id="g1466"
     transform="translate(2.283234,-0.91834333)"
     style="fill:#ffffff">
    <ellipse
       class="a"
       cx="8.3509998"
       cy="8.3520002"
       rx="8.3509998"
       ry="8.3520002"
       transform="rotate(-82.565,21.684442,-5.6732527)"
       id="ellipse1452"
       style="fill:#ffffff" />
    <path
       class="a"
       d="M 52.112,61.867 C 52.049,61.759 51.98,61.654 51.918,61.545 a 20.9,20.9 0 0 1 -2.692,-9.036 v -0.044 a 3.722,3.722 0 0 1 3.637,-3.814 h 0.075 a 3.731,3.731 0 0 1 3.71,3.64 c 0,0.012 0,0.062 0.01,0.136 0.012,0.145 0.036,0.388 0.084,0.708 a 14.266,14.266 0 0 0 0.656,2.591 13.861,13.861 0 0 0 1.023,2.212 c 0.134,-1.387 0.275,-2.7 0.388,-3.894 0.695,-3.783 -1.13,-8.046 -4.361,-8.518 -3.231,-0.472 -7.634,1.694 -8.957,7.289 a 47.658,47.658 0 0 0 -1.336,9.134 20.824,20.824 0 0 1 7.958,-0.082 z"
       transform="translate(-27.761,-27.574)"
       id="path1454"
       style="fill:#ffffff" />
    <path
       class="a"
       d="m 110.918,112.273 a 4.637,4.637 0 0 0 -0.3,-0.93 3.7,3.7 0 0 1 -3.814,2.214 30.38,30.38 0 0 1 -3.167,-0.513 20.841,20.841 0 0 1 1.669,18.126 l 1.1,5.362 a 4.6410321,4.6410321 0 0 0 9.094,-1.859 z"
       transform="translate(-65.16,-68.995)"
       id="path1456"
       style="fill:#ffffff" />
    <path
       class="a"
       d="m 75.506,77.377 a 28.94,28.94 0 0 0 3.824,0.674 3.024,3.024 0 0 0 0.331,0.019 2.97,2.97 0 0 0 0.322,-5.923 18.076,18.076 0 0 1 -8.3,-2.8 13.366,13.366 0 0 1 -5.139,-6.725 14.952,14.952 0 0 1 -0.691,-2.73 c -0.051,-0.337 -0.077,-0.6 -0.09,-0.763 -0.006,-0.082 -0.01,-0.14 -0.011,-0.171 v -0.006 a 2.9700762,2.9700762 0 1 0 -5.939,0.117 20.014,20.014 0 0 0 2.6,8.759 c 0.167,0.3 0.348,0.594 0.538,0.892 a 20.944,20.944 0 0 1 12.555,8.657 z"
       transform="translate(-37.603,-34.227)"
       id="path1458"
       style="fill:#ffffff" />
    <path
       class="a"
       d="M 59.808,64.2 Z"
       transform="translate(-37.603,-39.355)"
       id="path1460"
       style="fill:#ffffff" />
    <path
       class="a"
       d="M 10.7,51.726 A 1.854,1.854 0 0 0 8.907,50.352 H 1.856 a 1.8565,1.8565 0 1 0 0,3.713 h 5.631 l 3.469,12.9 a 20.726,20.726 0 0 1 3.459,-1.433 z"
       transform="translate(0,-30.648)"
       id="path1462"
       style="fill:#ffffff" />
    <path
       class="a"
       d="M 21.376,90.719 A 20.142,20.142 0 1 0 41.518,110.861 20.142,20.142 0 0 0 21.376,90.719 Z m 4.479,16.841 a 5.618,5.618 0 0 0 -1.178,-1.178 l 5.118,-8.865 a 15.854,15.854 0 0 1 4.925,4.925 z m 2.869,-10.66 -5.117,8.862 A 5.532,5.532 0 0 0 21.995,105.33 V 95.1 a 15.685,15.685 0 0 1 6.729,1.8 z m -7.967,8.431 a 5.53,5.53 0 0 0 -1.612,0.432 L 14.028,96.9 a 15.69,15.69 0 0 1 6.729,-1.8 z m -4.914,4.914 H 5.612 a 15.69,15.69 0 0 1 1.8,-6.728 l 8.863,5.117 a 5.521,5.521 0 0 0 -0.432,1.608 z m 0,1.238 a 5.521,5.521 0 0 0 0.432,1.612 l -8.863,5.117 a 15.7,15.7 0 0 1 -1.8,-6.729 z m 4.914,4.914 v 10.231 a 15.693,15.693 0 0 1 -6.728,-1.8 l 5.117,-8.863 a 5.53,5.53 0 0 0 1.611,0.428 z m 1.238,0 a 5.529,5.529 0 0 0 1.612,-0.431 l 5.117,8.862 a 15.69,15.69 0 0 1 -6.728,1.8 z m 4.914,-4.914 H 37.14 a 15.69,15.69 0 0 1 -1.8,6.729 l -8.862,-5.117 a 5.546,5.546 0 0 0 0.431,-1.616 z m 0,-1.237 a 5.538,5.538 0 0 0 -0.432,-1.612 l 8.862,-5.117 a 15.685,15.685 0 0 1 1.8,6.729 z m -13.951,-12.729 5.118,8.865 a 5.593,5.593 0 0 0 -1.178,1.178 l -8.865,-5.118 a 15.847,15.847 0 0 1 4.925,-4.925 z m -4.926,21.762 8.865,-5.118 a 5.6,5.6 0 0 0 1.178,1.179 l -5.118,8.86 a 15.863,15.863 0 0 1 -4.925,-4.921 z m 21.762,4.921 -5.118,-8.865 a 5.6,5.6 0 0 0 1.179,-1.178 l 8.865,5.118 a 15.857,15.857 0 0 1 -4.926,4.925 z"
       transform="translate(-0.776,-56.028)"
       id="path1464"
       style="fill:#ffffff" />
  </g>
  <g
     id="g1527"
     transform="translate(-5.4359433e-8,0.58082962)">
    <g
       aria-label="SEVERE"
       id="text849-8"
       style="font-weight:700;font-size:13.3333px;font-family:Gotham-Bold, Gotham;letter-spacing:-0.01em;fill:#ffffff;stroke-width:0.153741"
       class="b">
      <path
         d="m 4.8992237,93.971674 c 2.0133283,0 3.426658,-1.039998 3.426658,-2.893326 v -0.02667 c 0,-1.626662 -1.0666639,-2.306661 -2.9599925,-2.799993 C 3.75256,87.838356 3.352561,87.638356 3.352561,87.025025 v -0.02667 c 0,-0.453332 0.4133323,-0.813331 1.1999969,-0.813331 0.7866647,0 1.599996,0.346666 2.4266606,0.919997 L 8.0458824,85.558362 C 7.0992182,84.798364 5.9392211,84.371698 4.5792245,84.371698 c -1.9066618,0 -3.2666584,1.119997 -3.2666584,2.813326 v 0.02667 c 0,1.853328 1.2133303,2.373327 3.0933255,2.853326 1.5599961,0.399999 1.8799953,0.666665 1.8799953,1.186664 v 0.02667 c 0,0.546666 -0.5066654,0.879998 -1.3466633,0.879998 -1.0666639,0 -1.9466617,-0.439999 -2.7866596,-1.13333 l -1.21333026,1.453329 c 1.11999716,0.999998 2.54666026,1.49333 3.95998996,1.49333 z"
         style="font-weight:700;font-size:13.3333px;font-family:Gotham-Bold, Gotham;letter-spacing:-0.01em;fill:#ffffff;stroke-width:0.153741"
         id="path1529" />
      <path
         d="m 9.987544,93.838341 h 7.106649 v -1.826662 h -5.066654 v -1.959995 h 4.399989 v -1.826662 h -4.399989 v -1.893329 h 4.999987 V 84.505031 H 9.987544 Z"
         style="font-weight:700;font-size:13.3333px;font-family:Gotham-Bold, Gotham;letter-spacing:-0.01em;fill:#ffffff;stroke-width:0.153741"
         id="path1531" />
      <path
         d="m 21.759807,93.905007 h 1.813328 l 3.773324,-9.399976 h -2.213328 l -2.439993,6.573317 -2.439994,-6.573317 h -2.266661 z"
         style="font-weight:700;font-size:13.3333px;font-family:Gotham-Bold, Gotham;letter-spacing:-0.01em;fill:#ffffff;stroke-width:0.153741"
         id="path1533" />
      <path
         d="m 28.653123,93.838341 h 7.106649 v -1.826662 h -5.066654 v -1.959995 h 4.399989 v -1.826662 h -4.399989 v -1.893329 h 4.999987 v -1.826662 h -7.039982 z"
         style="font-weight:700;font-size:13.3333px;font-family:Gotham-Bold, Gotham;letter-spacing:-0.01em;fill:#ffffff;stroke-width:0.153741"
         id="path1535" />
      <path
         d="m 37.452058,93.838341 h 2.053328 v -2.986659 h 1.613329 l 1.999995,2.986659 h 2.399994 L 43.23871,90.505016 c 1.186663,-0.439999 1.999995,-1.386663 1.999995,-2.893326 v -0.02667 c 0,-0.879998 -0.28,-1.613329 -0.799998,-2.133328 -0.613332,-0.613331 -1.53333,-0.946664 -2.719993,-0.946664 h -4.266656 z m 2.053328,-4.799988 V 86.35836 h 2.039995 c 0.999997,0 1.613329,0.453332 1.613329,1.33333 v 0.02667 c 0,0.786665 -0.573332,1.319997 -1.573329,1.319997 z"
         style="font-weight:700;font-size:13.3333px;font-family:Gotham-Bold, Gotham;letter-spacing:-0.01em;fill:#ffffff;stroke-width:0.153741"
         id="path1537" />
      <path
         d="m 46.954118,93.838341 h 7.106648 v -1.826662 h -5.066653 v -1.959995 h 4.399988 V 88.225022 H 48.994113 V 86.331693 H 53.9941 v -1.826662 h -7.039982 z"
         style="font-weight:700;font-size:13.3333px;font-family:Gotham-Bold, Gotham;letter-spacing:-0.01em;fill:#ffffff;stroke-width:0.153741"
         id="path1539" />
    </g>
  </g>
</svg>
