<?xml version="1.0" encoding="UTF-8" standalone="no"?>
<svg
   xmlns:dc="http://purl.org/dc/elements/1.1/"
   xmlns:cc="http://creativecommons.org/ns#"
   xmlns:rdf="http://www.w3.org/1999/02/22-rdf-syntax-ns#"
   xmlns:svg="http://www.w3.org/2000/svg"
   xmlns="http://www.w3.org/2000/svg"
   xmlns:sodipodi="http://sodipodi.sourceforge.net/DTD/sodipodi-0.dtd"
   xmlns:inkscape="http://www.inkscape.org/namespaces/inkscape"
   width="91"
   height="16"
   viewBox="0 0 91 16"
   version="1.1"
   id="svg853"
   sodipodi:docname="skip-video.svg"
   inkscape:version="1.0.2 (e86c8708, 2021-01-15)">
  <metadata
     id="metadata857">
    <rdf:RDF>
      <cc:Work
         rdf:about="">
        <dc:format>image/svg+xml</dc:format>
        <dc:type
           rdf:resource="http://purl.org/dc/dcmitype/StillImage" />
        <dc:title></dc:title>
      </cc:Work>
    </rdf:RDF>
  </metadata>
  <sodipodi:namedview
     pagecolor="#ffffff"
     bordercolor="#666666"
     borderopacity="1"
     objecttolerance="10"
     gridtolerance="10"
     guidetolerance="10"
     inkscape:pageopacity="0"
     inkscape:pageshadow="2"
     inkscape:window-width="1920"
     inkscape:window-height="978"
     id="namedview855"
     showgrid="false"
     inkscape:zoom="6.970235"
     inkscape:cx="69.7824"
     inkscape:cy="15.325599"
     inkscape:window-x="0"
     inkscape:window-y="25"
     inkscape:window-maximized="0"
     inkscape:current-layer="g851"
     inkscape:document-rotation="0"
     inkscape:snap-page="true"
     inkscape:snap-grids="false" />
  <defs
     id="defs835">
    <style
       id="style833">.a{fill:rgba(0,0,0,0.5);}.b,.c{fill:#79b929;}.b{font-size:22px;font-family:Gotham-Medium, Gotham;font-weight:500;letter-spacing:-0.01em;}</style>
  </defs>
  <g
     transform="matrix(0.71458537,0,0,0.71458537,-1094.3342,-690.67155)"
     id="g851">
    <g
       aria-label="Skip video"
       transform="matrix(1.0435489,0,0,0.95826846,-2.7988258,0)"
       id="text841"
       style="font-weight:500;font-size:22px;font-family:Gotham-Medium, Gotham;letter-spacing:-0.01em;fill:#79b929;stroke-width:1.04355"
       class="b">
      <path
         d="m 1477.4474,1026.2227 c 2.707,0 5.2744,-1.2354 5.2744,-4.3291 0,-2.7608 -2.0518,-3.6202 -5.2314,-4.544 -1.9122,-0.5478 -3.7061,-1.0312 -3.7061,-2.8359 0,-1.6006 1.418,-2.417 3.3301,-2.417 2.1054,0 3.416,0.9775 3.5986,2.8896 h 1.6006 c -0.1934,-2.8037 -2.041,-4.3076 -5.1348,-4.3076 -2.6425,0 -5.0058,1.0957 -5.0058,3.8672 0,3.04 2.8681,3.792 4.9092,4.3506 2.331,0.6553 4.0283,1.2353 4.0283,3.0937 0,1.8369 -1.6436,2.8145 -3.6631,2.8145 -2.3526,0 -3.9639,-1.3213 -4.1143,-3.5235 h -1.6006 c 0.1182,3.0293 2.2881,4.9415 5.7149,4.9415 z"
         style="font-style:normal;font-variant:normal;font-weight:normal;font-stretch:normal;font-family:'Grantha Sangam MN';-inkscape-font-specification:'Grantha Sangam MN';stroke-width:1.04355"
         id="path864" />
      <path
         d="m 1486.7235,1022.1621 7.1435,-7.1543 h -2.0517 l -5.7793,5.7149 z m -1.5469,3.7813 h 1.5684 v -15.0928 h -1.5684 z m 6.9072,0 h 1.8369 l -4.1464,-6.8965 -1.7618,0.1289 z"
         style="font-style:normal;font-variant:normal;font-weight:normal;font-stretch:normal;font-family:'Grantha Sangam MN';-inkscape-font-specification:'Grantha Sangam MN';stroke-width:1.04355"
         id="path866" />
      <path
         d="m 1495.8384,1025.9434 h 1.5684 v -10.9356 h -1.5684 z m -0.054,-13.0625 h 1.6758 v -1.9229 h -1.6758 z"
         style="font-style:normal;font-variant:normal;font-weight:normal;font-stretch:normal;font-family:'Grantha Sangam MN';-inkscape-font-specification:'Grantha Sangam MN';stroke-width:1.04355"
         id="path868" />
      <path
         d="m 1500.678,1030.3584 h 1.5684 v -6.4883 l -0.1182,0.043 c 0.5264,1.2246 1.7725,2.3096 3.459,2.3096 2.6641,0 4.5439,-2.3848 4.5439,-5.7793 0,-3.1582 -1.7402,-5.7149 -4.4472,-5.7149 -1.6543,0 -3.0186,0.9668 -3.6309,2.5137 l 0.1397,0.032 v -2.2666 h -1.5147 z m 4.7373,-5.543 c -1.9443,0 -3.1689,-1.9873 -3.1689,-4.1465 v -0.3115 c 0,-2.2344 1.1494,-4.2217 3.1689,-4.2217 2.0195,0 3.126,1.9766 3.126,4.3184 0,2.3525 -1.0742,4.3613 -3.126,4.3613 z"
         style="font-style:normal;font-variant:normal;font-weight:normal;font-stretch:normal;font-family:'Grantha Sangam MN';-inkscape-font-specification:'Grantha Sangam MN';stroke-width:1.04355"
         id="path870" />
      <path
         d="m 1520.2937,1025.9434 h 1.8262 l 3.9101,-10.9356 h -1.6973 l -2.4707,7.1113 c -0.2578,0.752 -0.5478,1.6651 -0.8164,2.5137 h 0.3116 c -0.2686,-0.8486 -0.5586,-1.7617 -0.8165,-2.5137 l -2.4814,-7.1113 h -1.6973 z"
         style="font-style:normal;font-variant:normal;font-weight:normal;font-stretch:normal;font-family:'Grantha Sangam MN';-inkscape-font-specification:'Grantha Sangam MN';stroke-width:1.04355"
         id="path872" />
      <path
         d="m 1528.1733,1025.9434 h 1.5683 v -10.9356 h -1.5683 z m -0.054,-13.0625 h 1.6758 v -1.9229 h -1.6758 z"
         style="font-style:normal;font-variant:normal;font-weight:normal;font-stretch:normal;font-family:'Grantha Sangam MN';-inkscape-font-specification:'Grantha Sangam MN';stroke-width:1.04355"
         id="path874" />
      <path
         d="m 1536.7619,1026.2227 c 1.622,0 3.0078,-0.9239 3.6523,-2.46 l -0.1289,-0.1182 v 2.2989 h 1.5254 v -15.0928 h -1.5791 v 6.166 l 0.1074,-0.043 c -0.5156,-1.2998 -1.7402,-2.2451 -3.373,-2.2451 -2.5889,0 -4.6192,2.2344 -4.6192,5.7363 0,3.1905 1.6651,5.7579 4.4151,5.7579 z m 0.29,-1.4073 c -2.0195,0 -3.1045,-2.0625 -3.1045,-4.3291 0,-2.3525 1.1387,-4.3506 3.1475,-4.3506 1.9443,0 3.1367,1.9229 3.1367,4.168 v 0.2793 c 0,2.2774 -1.2246,4.2324 -3.1797,4.2324 z"
         style="font-style:normal;font-variant:normal;font-weight:normal;font-stretch:normal;font-family:'Grantha Sangam MN';-inkscape-font-specification:'Grantha Sangam MN';stroke-width:1.04355"
         id="path876" />
      <path
         d="m 1549.2391,1026.2227 c 2.2989,0 4.0928,-1.3858 4.4903,-3.3946 h -1.5254 c -0.3652,1.2569 -1.5361,1.9873 -2.9111,1.9873 -2.1915,0 -3.3516,-1.9443 -3.3946,-3.9961 h 8.0352 v -0.6767 c 0,-3.2012 -1.9336,-5.4141 -4.7588,-5.4141 -3.0293,0 -4.8877,2.4815 -4.8877,5.6826 0,3.1368 1.7617,5.8116 4.9521,5.8116 z m -3.3193,-6.6817 c 0.1289,-1.8154 1.3213,-3.4053 3.2441,-3.4053 1.8155,0 3.0616,1.4502 3.1583,3.4053 z"
         style="font-style:normal;font-variant:normal;font-weight:normal;font-stretch:normal;font-family:'Grantha Sangam MN';-inkscape-font-specification:'Grantha Sangam MN';stroke-width:1.04355"
         id="path878" />
      <path
         d="m 1560.5885,1026.2227 c 2.9433,0 4.9199,-2.3311 4.9199,-5.7471 0,-3.416 -1.9766,-5.7471 -4.9199,-5.7471 -2.9541,0 -4.9199,2.3311 -4.9199,5.7471 0,3.416 1.9765,5.7471 4.9199,5.7471 z m 0,-1.4073 c -1.9981,0 -3.3194,-1.7832 -3.3194,-4.3398 0,-2.5567 1.3213,-4.3399 3.3194,-4.3399 1.998,0 3.3193,1.7725 3.3193,4.3399 0,2.5566 -1.3213,4.3398 -3.3193,4.3398 z"
         style="font-style:normal;font-variant:normal;font-weight:normal;font-stretch:normal;font-family:'Grantha Sangam MN';-inkscape-font-specification:'Grantha Sangam MN';stroke-width:1.04355"
         id="path880" />
    </g>
    <g
       transform="translate(26.339953,-8490.0692)"
       id="g849">
      <g
         transform="translate(1613,9459)"
         id="g847">
        <path
           class="c"
           d="m 9,0 9,15 H 0 Z"
           transform="rotate(90,7.5,7.5)"
           id="path843" />
        <rect
           class="c"
           width="3"
           height="18"
           transform="translate(13)"
           id="rect845"
           x="0"
           y="0" />
      </g>
    </g>
  </g>
</svg>
